<?xml version="1.0"?>
<svg version="1.1" xmlns="http://www.w3.org/2000/svg" width="200" height="40" style=""><path fill="#" d="M33.29,34.88l0,1.705l-5.27,0.155l-0.248-1.767c-0.899,0.899-2.511,2.077-4.867,2.077c-4.495,0-6.51-3.255-6.51-8.06c0-5.27,2.635-8.99,8.215-8.99c1.147,0,2.139,0.217,2.945,0.496l0-5.146l-2.635-0.62l0-1.705l5.735-0.155l0,21.39z M27.555,32.245l0-9.145s-1.085-0.62-3.255-0.62c-3.596,0-4.65,2.79-4.65,6.2s1.085,5.89,3.875,5.89c2.635,0,4.03-2.325,4.03-2.325z M51.3816,28.99l-10.695,0c0,3.41,1.829,5.58,4.495,5.58c3.1,0,5.208-1.705,5.208-1.705l1.085,1.612s-2.883,2.573-6.603,2.573c-4.96,0-7.44-3.255-7.44-8.37c0-4.96,3.1-8.68,7.595-8.68s6.51,2.635,6.51,7.285c0,0.775-0.155,1.643-0.155,1.705z M40.8106,26.665l7.44,0c0-2.325-0.899-4.247-3.379-4.247s-3.875,1.922-4.061,4.247z M60.0182,22.48l3.689,11.47l3.72-11.315l-2.139-0.465l0-1.705l6.944-0.155l0,1.86l-1.705,0.31l-5.27,14.26l-3.41,0l-5.084-14.105l-1.55-0.465l0-1.705l6.975-0.155l0,1.86z M80.5588,20.31l0.248,1.736c0.93-0.868,2.573-2.046,4.712-2.046c4.495,0,6.665,3.255,6.665,8.06c0,5.27-2.635,8.99-8.37,8.99c-1.023,0-1.953-0.186-2.79-0.434l0,4.929l3.255,0.62l0,1.705l-8.835,0l0-1.705l2.48-0.62l0-18.755l-2.635-0.62l0-1.705z M81.0238,24.65l0,9.3s0.93,0.62,3.255,0.62c3.596,0,4.65-2.79,4.65-6.2s-1.24-5.89-4.03-5.89s-3.875,2.17-3.875,2.17z M98.1854,25.115l-0.155-3.875s3.41-1.24,6.045-1.24c3.596,0,5.735,1.24,5.735,4.805l0,9.455l2.48,0.62l0,1.705l-4.805,0.155l-0.651-2.17c-1.054,1.054-2.914,2.48-5.084,2.48c-2.945,0-4.65-1.705-4.65-4.65c0-3.565,2.79-4.805,7.13-4.805l2.48,0l0-2.48c0-1.86-1.085-2.79-2.945-2.79s-3.131,0.465-3.131,0.465l-0.434,2.325l-2.015,0z M106.7104,29.61l-2.17,0c-3.1,0-4.278,0.775-4.278,2.635c0,1.395,0.868,2.325,2.263,2.325c2.325,0,4.185-2.48,4.185-2.48l0-2.48z M121.702,20.31l0.279,2.201c0.713-0.682,3.069-2.511,5.611-2.511c2.232,0,3.596,1.054,4.309,2.666c0.403-0.403,2.914-2.666,5.766-2.666c3.41,0,4.805,2.17,4.805,5.58l0,8.68l2.325,0.775l0,1.705l-7.44,0l0-1.705l2.015-0.775l0-8.37c0-2.17-0.62-3.255-2.635-3.255c-2.635,0-4.34,2.48-4.34,2.48l0,9.145l2.015,0.775l0,1.705l-7.13,0l0-1.705l2.015-0.775l0-8.37c0-2.17-0.62-3.255-2.635-3.255c-2.635,0-4.34,2.48-4.34,2.48l0,9.145l2.015,0.775l0,1.705l-7.75,0l0-1.705l2.635-0.775l0-11.47l-2.635-0.62l0-1.705z M163.0436,28.99l-10.695,0c0,3.41,1.829,5.58,4.495,5.58c3.1,0,5.208-1.705,5.208-1.705l1.085,1.612s-2.883,2.573-6.603,2.573c-4.96,0-7.44-3.255-7.44-8.37c0-4.96,3.1-8.68,7.595-8.68s6.51,2.635,6.51,7.285c0,0.775-0.155,1.643-0.155,1.705z M152.4726,26.665l7.44,0c0-2.325-0.899-4.247-3.379-4.247s-3.875,1.922-4.061,4.247z M176.0822,35.035l0,1.705l-8.587,0l0-1.705l2.635-0.775l0-18.91l-2.635-0.62l0-1.705l5.797-0.155l0,21.39z M180.8438,25.115l-0.155-3.875s3.41-1.24,6.045-1.24c3.596,0,5.735,1.24,5.735,4.805l0,9.455l2.48,0.62l0,1.705l-4.805,0.155l-0.651-2.17c-1.054,1.054-2.914,2.48-5.084,2.48c-2.945,0-4.65-1.705-4.65-4.65c0-3.565,2.79-4.805,7.13-4.805l2.48,0l0-2.48c0-1.86-1.085-2.79-2.945-2.79s-3.131,0.465-3.131,0.465l-0.434,2.325l-2.015,0z M189.3688,29.61l-2.17,0c-3.1,0-4.278,0.775-4.278,2.635c0,1.395,0.868,2.325,2.263,2.325c2.325,0,4.185-2.48,4.185-2.48l0-2.48z"/><path fill="#" d=""/></svg>
